<mxfile host="Electron" modified="2024-01-16T08:55:56.970Z" agent="Mozilla/5.0 (Windows NT 10.0; Win64; x64) AppleWebKit/537.36 (KHTML, like Gecko) draw.io/22.1.18 Chrome/120.0.6099.199 Electron/28.1.2 Safari/537.36" etag="Z9sK3Qp1WhhP-eilb2nb" version="22.1.18" type="device">
  <diagram id="C5RBs43oDa-KdzZeNtuy" name="Page-1">
    <mxGraphModel dx="952" dy="2294" grid="1" gridSize="10" guides="1" tooltips="1" connect="1" arrows="1" fold="1" page="1" pageScale="1" pageWidth="827" pageHeight="1169" math="0" shadow="0">
      <root>
        <mxCell id="WIyWlLk6GJQsqaUBKTNV-0" />
        <mxCell id="WIyWlLk6GJQsqaUBKTNV-1" parent="WIyWlLk6GJQsqaUBKTNV-0" />
        <mxCell id="qhaT5shh3t404A9H30t_-0" value="" style="swimlane;whiteSpace=wrap;html=1;" vertex="1" parent="WIyWlLk6GJQsqaUBKTNV-1">
          <mxGeometry x="200" y="70" width="1560" height="770" as="geometry" />
        </mxCell>
        <mxCell id="qhaT5shh3t404A9H30t_-3" value="&lt;div style=&quot;color: rgb(204, 204, 204); background-color: rgb(31, 31, 31); font-family: Consolas, &amp;quot;Courier New&amp;quot;, monospace; font-size: 14px; line-height: 19px;&quot;&gt;handleChangeUserName&lt;/div&gt;" style="rounded=0;whiteSpace=wrap;html=1;" vertex="1" parent="qhaT5shh3t404A9H30t_-0">
          <mxGeometry x="100" y="80" width="220" height="80" as="geometry" />
        </mxCell>
        <mxCell id="qhaT5shh3t404A9H30t_-5" value="&lt;div style=&quot;color: rgb(204, 204, 204); background-color: rgb(31, 31, 31); font-family: Consolas, &amp;quot;Courier New&amp;quot;, monospace; font-size: 14px; line-height: 19px;&quot;&gt;&lt;div style=&quot;line-height: 19px;&quot;&gt;handleChangeSessionId&lt;/div&gt;&lt;/div&gt;" style="rounded=0;whiteSpace=wrap;html=1;" vertex="1" parent="qhaT5shh3t404A9H30t_-0">
          <mxGeometry x="100" y="170" width="220" height="80" as="geometry" />
        </mxCell>
        <mxCell id="qhaT5shh3t404A9H30t_-6" value="sessionID와&lt;br&gt;UserName을 설정한다" style="rounded=0;whiteSpace=wrap;html=1;" vertex="1" parent="qhaT5shh3t404A9H30t_-0">
          <mxGeometry x="350" y="140" width="190" height="60" as="geometry" />
        </mxCell>
        <mxCell id="qhaT5shh3t404A9H30t_-7" value="Join session" style="swimlane;whiteSpace=wrap;html=1;" vertex="1" parent="qhaT5shh3t404A9H30t_-0">
          <mxGeometry x="70" y="285" width="610" height="460" as="geometry" />
        </mxCell>
        <mxCell id="qhaT5shh3t404A9H30t_-8" value="새로운 세션을 리턴하고 객체로 삼는다" style="rounded=0;whiteSpace=wrap;html=1;" vertex="1" parent="qhaT5shh3t404A9H30t_-7">
          <mxGeometry x="30" y="45" width="290" height="75" as="geometry" />
        </mxCell>
        <mxCell id="qhaT5shh3t404A9H30t_-9" value="&lt;div style=&quot;color: rgb(204, 204, 204); background-color: rgb(31, 31, 31); font-family: Consolas, &amp;quot;Courier New&amp;quot;, monospace; font-size: 14px; line-height: 19px;&quot;&gt;streamCreated&amp;nbsp;&lt;br&gt;사건이 일어난다면&lt;/div&gt;" style="rounded=0;whiteSpace=wrap;html=1;" vertex="1" parent="qhaT5shh3t404A9H30t_-7">
          <mxGeometry x="30" y="130" width="290" height="75" as="geometry" />
        </mxCell>
        <mxCell id="qhaT5shh3t404A9H30t_-10" value="새롭게 생성된 세션의 subscribe들을 subscriber에 추가한다&amp;nbsp;" style="rounded=0;whiteSpace=wrap;html=1;" vertex="1" parent="qhaT5shh3t404A9H30t_-7">
          <mxGeometry x="40" y="225" width="336" height="60" as="geometry" />
        </mxCell>
        <mxCell id="qhaT5shh3t404A9H30t_-17" value="" style="edgeStyle=orthogonalEdgeStyle;rounded=0;orthogonalLoop=1;jettySize=auto;html=1;" edge="1" parent="qhaT5shh3t404A9H30t_-7" source="qhaT5shh3t404A9H30t_-12" target="qhaT5shh3t404A9H30t_-15">
          <mxGeometry relative="1" as="geometry" />
        </mxCell>
        <mxCell id="qhaT5shh3t404A9H30t_-12" value="&lt;div style=&quot;color: rgb(204, 204, 204); background-color: rgb(31, 31, 31); font-family: Consolas, &amp;quot;Courier New&amp;quot;, monospace; font-size: 14px; line-height: 19px;&quot;&gt;streamDestroyed&lt;/div&gt;사건이 일어난다면" style="rounded=0;whiteSpace=wrap;html=1;" vertex="1" parent="qhaT5shh3t404A9H30t_-7">
          <mxGeometry x="60" y="300" width="120" height="60" as="geometry" />
        </mxCell>
        <mxCell id="qhaT5shh3t404A9H30t_-18" value="" style="edgeStyle=orthogonalEdgeStyle;rounded=0;orthogonalLoop=1;jettySize=auto;html=1;" edge="1" parent="qhaT5shh3t404A9H30t_-7" source="qhaT5shh3t404A9H30t_-13" target="qhaT5shh3t404A9H30t_-16">
          <mxGeometry relative="1" as="geometry" />
        </mxCell>
        <mxCell id="qhaT5shh3t404A9H30t_-13" value="&lt;div style=&quot;color: rgb(204, 204, 204); background-color: rgb(31, 31, 31); font-family: Consolas, &amp;quot;Courier New&amp;quot;, monospace; font-size: 14px; line-height: 19px;&quot;&gt;exception&lt;/div&gt;사건이 일어난다면" style="rounded=0;whiteSpace=wrap;html=1;" vertex="1" parent="qhaT5shh3t404A9H30t_-7">
          <mxGeometry x="60" y="375" width="120" height="60" as="geometry" />
        </mxCell>
        <mxCell id="qhaT5shh3t404A9H30t_-15" value="streammanager 을 전부 비운다&lt;br&gt;destroy한 놈만 지우는 것 같다" style="rounded=0;whiteSpace=wrap;html=1;" vertex="1" parent="qhaT5shh3t404A9H30t_-7">
          <mxGeometry x="220" y="300" width="310" height="60" as="geometry" />
        </mxCell>
        <mxCell id="qhaT5shh3t404A9H30t_-16" value="경고를 날린다" style="rounded=0;whiteSpace=wrap;html=1;" vertex="1" parent="qhaT5shh3t404A9H30t_-7">
          <mxGeometry x="220" y="375" width="120" height="60" as="geometry" />
        </mxCell>
        <mxCell id="qhaT5shh3t404A9H30t_-14" value="세션이 바뀌었다면 useEffect가 일어난다" style="rounded=0;whiteSpace=wrap;html=1;" vertex="1" parent="qhaT5shh3t404A9H30t_-0">
          <mxGeometry x="740" y="480" width="120" height="60" as="geometry" />
        </mxCell>
        <mxCell id="qhaT5shh3t404A9H30t_-34" value="useEffect" style="swimlane;whiteSpace=wrap;html=1;" vertex="1" parent="qhaT5shh3t404A9H30t_-0">
          <mxGeometry x="910" y="280" width="650" height="470" as="geometry" />
        </mxCell>
        <mxCell id="qhaT5shh3t404A9H30t_-35" value="세션이 있을 경우에만 작동한다" style="rounded=0;whiteSpace=wrap;html=1;" vertex="1" parent="qhaT5shh3t404A9H30t_-34">
          <mxGeometry x="20" y="50" width="209" height="52" as="geometry" />
        </mxCell>
        <mxCell id="qhaT5shh3t404A9H30t_-46" value="getToken함수를 통해서 토큰을 인풋으로 받음" style="rounded=0;whiteSpace=wrap;html=1;" vertex="1" parent="qhaT5shh3t404A9H30t_-34">
          <mxGeometry x="20" y="135" width="209" height="52" as="geometry" />
        </mxCell>
        <mxCell id="qhaT5shh3t404A9H30t_-47" value="토큰을 받은 것을 통해서 생성된 세션에 connect한다, 토큰과 유저네임을 사용" style="rounded=0;whiteSpace=wrap;html=1;" vertex="1" parent="qhaT5shh3t404A9H30t_-34">
          <mxGeometry x="20" y="220" width="310" height="70" as="geometry" />
        </mxCell>
        <mxCell id="qhaT5shh3t404A9H30t_-1" value="Session 이 존재하지 않을경우" style="swimlane;whiteSpace=wrap;html=1;" vertex="1" parent="WIyWlLk6GJQsqaUBKTNV-1">
          <mxGeometry x="180" y="900" width="1350" height="770" as="geometry" />
        </mxCell>
        <mxCell id="qhaT5shh3t404A9H30t_-37" value="getToken" style="swimlane;whiteSpace=wrap;html=1;startSize=23;" vertex="1" parent="WIyWlLk6GJQsqaUBKTNV-1">
          <mxGeometry x="1830" y="550" width="640" height="530" as="geometry" />
        </mxCell>
        <mxCell id="qhaT5shh3t404A9H30t_-38" value="현재 세션 아이디로 createSession을 보낸다" style="rounded=0;whiteSpace=wrap;html=1;" vertex="1" parent="qhaT5shh3t404A9H30t_-37">
          <mxGeometry x="60" y="120" width="260" height="90" as="geometry" />
        </mxCell>
        <mxCell id="qhaT5shh3t404A9H30t_-42" value="비동기로 응답이 왔을 경우 들어온 세션아이디를 이용해 createToken을 한다" style="rounded=0;whiteSpace=wrap;html=1;" vertex="1" parent="qhaT5shh3t404A9H30t_-37">
          <mxGeometry x="60" y="250" width="260" height="90" as="geometry" />
        </mxCell>
        <mxCell id="qhaT5shh3t404A9H30t_-39" value="createSession" style="swimlane;whiteSpace=wrap;html=1;" vertex="1" parent="WIyWlLk6GJQsqaUBKTNV-1">
          <mxGeometry x="1820" y="-170" width="550" height="310" as="geometry" />
        </mxCell>
        <mxCell id="qhaT5shh3t404A9H30t_-40" value="특정 서버의 api에 post 요청을 보내고" style="rounded=0;whiteSpace=wrap;html=1;" vertex="1" parent="qhaT5shh3t404A9H30t_-39">
          <mxGeometry x="20" y="50" width="300" height="50" as="geometry" />
        </mxCell>
        <mxCell id="qhaT5shh3t404A9H30t_-41" value="response.data에 있는 세션 데이터를 리턴한다" style="rounded=0;whiteSpace=wrap;html=1;" vertex="1" parent="qhaT5shh3t404A9H30t_-39">
          <mxGeometry x="20" y="130" width="300" height="50" as="geometry" />
        </mxCell>
        <mxCell id="qhaT5shh3t404A9H30t_-43" value="createToken" style="swimlane;whiteSpace=wrap;html=1;startSize=23;" vertex="1" parent="WIyWlLk6GJQsqaUBKTNV-1">
          <mxGeometry x="1850" y="170" width="550" height="310" as="geometry" />
        </mxCell>
        <mxCell id="qhaT5shh3t404A9H30t_-44" value="특정 서버의 api에 post 요청을 보내고" style="rounded=0;whiteSpace=wrap;html=1;" vertex="1" parent="qhaT5shh3t404A9H30t_-43">
          <mxGeometry x="20" y="50" width="300" height="50" as="geometry" />
        </mxCell>
        <mxCell id="qhaT5shh3t404A9H30t_-45" value="response.data에 있는 토큰데이터를 리턴한다" style="rounded=0;whiteSpace=wrap;html=1;" vertex="1" parent="qhaT5shh3t404A9H30t_-43">
          <mxGeometry x="20" y="130" width="300" height="50" as="geometry" />
        </mxCell>
      </root>
    </mxGraphModel>
  </diagram>
</mxfile>
